<svg width="300" height="111" viewBox="0 0 300 111" fill="none" xmlns="http://www.w3.org/2000/svg">
<g clip-path="url(#clip0_808_334)">
<path d="M123.971 55.036C123.971 22.1223 149.396 0 180.648 0C211.899 0 237.13 23.741 237.13 53.9568C237.13 87.1727 212.007 110.072 180.453 110.072H133.921C133.921 110.072 139.554 94.964 134.525 88.2302C127.527 78.5893 123.826 66.9481 123.971 55.036Z" fill="#020F24"/>
<path d="M189.151 54.0646C189.151 61.5754 181.101 66.8416 181.101 66.8416C181.101 66.8416 173.029 61.3596 173.029 54.0646C172.972 52.9709 173.139 51.8772 173.518 50.8499C173.898 49.8226 174.483 48.8833 175.237 48.0891C175.991 47.295 176.899 46.6626 177.905 46.2304C178.911 45.7983 179.995 45.5754 181.09 45.5754C182.185 45.5754 183.269 45.7983 184.275 46.2304C185.281 46.6626 186.189 47.295 186.943 48.0891C187.698 48.8833 188.282 49.8226 188.662 50.8499C189.041 51.8772 189.208 52.9709 189.151 54.0646Z" fill="#FDBC46"/>
<path d="M161.698 54.0648C161.698 61.5756 153.648 66.8417 153.648 66.8417C153.648 66.8417 145.597 61.3597 145.597 54.0648C145.597 51.9297 146.445 49.882 147.955 48.3723C149.465 46.8626 151.512 46.0144 153.648 46.0144C155.783 46.0144 157.83 46.8626 159.34 48.3723C160.85 49.882 161.698 51.9297 161.698 54.0648Z" fill="#D74578"/>
<path d="M217.748 54.0648C217.748 61.5756 209.676 66.8418 209.676 66.8418C209.676 66.8418 201.626 61.3598 201.626 54.0648C201.733 51.999 202.629 50.0531 204.129 48.6287C205.629 47.2043 207.619 46.4102 209.687 46.4102C211.756 46.4102 213.745 47.2043 215.245 48.6287C216.745 50.0531 217.641 51.999 217.748 54.0648Z" fill="#2BC07E"/>
<path d="M277.468 59.3525V52.5324C277.468 51.6084 277.65 50.6935 278.003 49.8398C278.357 48.9862 278.875 48.2105 279.529 47.5572C280.182 46.9038 280.958 46.3856 281.811 46.032C282.665 45.6784 283.58 45.4964 284.504 45.4964H294.259V21.4532H284.504C282.661 21.4474 280.894 20.719 279.583 19.4245C278.25 18.1275 277.476 16.3623 277.425 14.5036V13.2086C277.425 11.4741 277.083 9.75645 276.419 8.15391C275.755 6.55136 274.782 5.09525 273.556 3.86872C272.329 2.64218 270.873 1.66924 269.271 1.00545C267.668 0.341651 265.951 0 264.216 0C262.481 0 260.764 0.341651 259.161 1.00545C257.559 1.66924 256.103 2.64218 254.876 3.86872C253.65 5.09525 252.677 6.55136 252.013 8.15391C251.349 9.75645 251.007 11.4741 251.007 13.2086V58.705C251.05 87.4101 263.309 109.597 300 109.597V84.1511C280.727 84.1511 277.468 75.4964 277.468 59.3525Z" fill="#020F24"/>
<path d="M0 54.8848C0 22.2085 25.3165 0.237305 56.4604 0.237305C87.6043 0.237305 112.727 23.8272 112.727 53.9783C112.727 87.0431 87.6259 109.834 56.2662 109.834C23.2014 109.834 0 86.3524 0 54.8848ZM56.2662 25.2301C49.4513 25.0455 42.7973 27.3182 37.5193 31.6333C32.2413 35.9485 28.6914 42.018 27.518 48.7337C23.3957 70.0143 42.6259 89.0718 63.8201 84.0215C76.9424 80.9351 85.8129 69.6042 85.8129 54.4747C85.7055 46.6997 82.5485 39.278 77.0221 33.8081C71.4956 28.3382 64.0419 25.2577 56.2662 25.2301Z" fill="#020F24"/>
</g>
<defs>
<clipPath id="clip0_808_334">
<rect width="300" height="110.072" fill="white"/>
</clipPath>
</defs>
</svg>
